<?xml version="1.0" encoding="UTF-8"?><svg id="Layer_1" xmlns="http://www.w3.org/2000/svg" viewBox="0 0 56 56"><defs><style>.cls-1{fill:#e2e2e2;}.cls-1,.cls-2{fill-rule:evenodd;stroke-width:0px;}.cls-2{fill:#df4907;}</style></defs><path class="cls-1" d="M28,8c-2.63,0-5.23.52-7.65,1.52-2.43,1.01-4.63,2.48-6.49,4.34-1.86,1.86-3.33,4.06-4.34,6.49-1.01,2.43-1.52,5.03-1.52,7.65s.52,5.23,1.52,7.65c1.01,2.43,2.48,4.63,4.34,6.49,1.86,1.86,4.06,3.33,6.49,4.34s5.03,1.52,7.65,1.52,5.23-.52,7.65-1.52c2.43-1.01,4.63-2.48,6.49-4.34,1.86-1.86,3.33-4.06,4.34-6.49,1.01-2.43,1.52-5.03,1.52-7.65s-.52-5.23-1.52-7.65-2.48-4.63-4.34-6.49c-1.86-1.86-4.06-3.33-6.49-4.34-2.43-1.01-5.03-1.52-7.65-1.52ZM17.28,2.13C20.68.72,24.32,0,28,0s7.32.72,10.72,2.13c3.4,1.41,6.48,3.47,9.08,6.07,2.6,2.6,4.66,5.69,6.07,9.08,1.41,3.4,2.13,7.04,2.13,10.72s-.72,7.32-2.13,10.72c-1.41,3.4-3.47,6.48-6.07,9.08-2.6,2.6-5.69,4.66-9.08,6.07-3.4,1.41-7.04,2.13-10.72,2.13s-7.32-.72-10.72-2.13c-3.4-1.41-6.48-3.47-9.08-6.07-2.6-2.6-4.66-5.69-6.07-9.08C.72,35.32,0,31.68,0,28c0-3.68.72-7.32,2.13-10.72,1.41-3.4,3.47-6.48,6.07-9.08,2.6-2.6,5.69-4.66,9.08-6.07Z"/><path class="cls-2" d="M4,24c2.21,0,4,1.79,4,4,0,2.63.52,5.23,1.52,7.65,1.01,2.43,2.48,4.63,4.34,6.49,1.86,1.86,4.06,3.33,6.49,4.34s5.03,1.52,7.65,1.52,5.23-.52,7.65-1.52c2.43-1.01,4.63-2.48,6.49-4.34,1.86-1.86,3.33-4.06,4.34-6.49,1.01-2.43,1.52-5.03,1.52-7.65,0-2.21,1.79-4,4-4s4,1.79,4,4c0,3.68-.72,7.32-2.13,10.72-1.41,3.4-3.47,6.48-6.07,9.08-2.6,2.6-5.69,4.66-9.08,6.07-3.4,1.41-7.04,2.13-10.72,2.13s-7.32-.72-10.72-2.13c-3.4-1.41-6.48-3.47-9.08-6.07-2.6-2.6-4.66-5.69-6.07-9.08C.72,35.32,0,31.68,0,28c0-2.21,1.79-4,4-4Z"/></svg>